# xmcd
#
# Track frame offsets:
# 150
# 22453
# 35573
# 55272
# 75178
# 95410
# 117853
# 133018
# 159137
#
# Disc length: 2334 seconds
#
#
# Revision: 0
# Processed by: cddbd v1.5.2PL0 Copyright (c) Steve Scherf et al.
# Submitted via: Nero 7, 11, 10, 0 
#
DISCID=6a091c09
DTITLE=Bryce Janey - Practice What You Preach
DYEAR=1995
DGENRE=Blues
TTITLE0=Practice What You Preach
TTITLE1=If I Could
TTITLE2=Goin' Back Home
TTITLE3=Walkin' Out On Me
TTITLE4=Tampa Bay
TTITLE5=Ain't Nobody Dancin'
TTITLE6=Some For Me, More For You
TTITLE7=Movin' On
TTITLE8=Gamblin' Man's Blues
EXTD=
EXTT0=Practice What You Preach
EXTT1=If I Could
EXTT2=Goin' Back Home
EXTT3=Walkin' Out On Me
EXTT4=Tampa Bay
EXTT5=Ain't Nobody Dancin'
EXTT6=Some For Me, More For You
EXTT7=Movin' On
EXTT8=Gamblin' Man's Blues
PLAYORDER=
